<?xml version="1.0"?>
<svg xmlns="http://www.w3.org/2000/svg" xmlnsXlink="http://www.w3.org/1999/xlink" xmlnsSvgjs="http://svgjs.com/svgjs" version="1.1" width="512" height="512" x="0" y="0" viewBox="0 0 512 512" style="enable-background:new 0 0 512 512" xmlSpace="preserve" class=""><g><script id="metastreaminitscript">(function() {
    document.getElementById('metastreaminitscript').remove()

    const INIT_TIMEOUT = 5e3
    const isFirefox = navigator.userAgent.toLowerCase().includes('firefox')

    //=========================================================================
    // document.createElement proxy
    //=========================================================================

    window.__metastreamMediaElements = new Set()

    // Proxy document.createElement to trap media elements created in-memory
    const origCreateElement = document.createElement
    const proxyCreateElement = function() {
      const element = origCreateElement.apply(document, arguments)
      if (window.__metastreamMediaElements &amp;&amp; element instanceof HTMLMediaElement) {
        window.__metastreamMediaElements.add(element)
      }
      return element
    }
    proxyCreateElement.toString = origCreateElement.toString.bind(origCreateElement)
    document.createElement = proxyCreateElement

    setTimeout(() =&gt; {
      if (window.__metastreamMediaElements) {
        window.__metastreamMediaElements.clear()
        window.__metastreamMediaElements = undefined
      }
    }, INIT_TIMEOUT)

    //=========================================================================
    // navigator.mediaSession proxy (Firefox)
    //=========================================================================

    if (isFirefox) {
      // stub out MediaSession API until Firefox supports this natively
      if (!navigator.mediaSession) {
        const noop = () =&gt; {}
        const mediaSessionStub = {
          __installedByMetastreamRemote__: true,
          setActionHandler: noop
        }
        Object.defineProperty(window.navigator, 'mediaSession', {
          value: mediaSessionStub,
          enumerable: false,
          writable: true
        })

        function MediaMetadata(metadata) {
          Object.assign(this, metadata)
        }
        window.MediaMetadata = MediaMetadata
      }

      const { mediaSession } = navigator

      // Capture action handlers for player.js proxy
      mediaSession._handlers = {}

      const _setActionHandler = mediaSession.setActionHandler
      mediaSession.setActionHandler = function(name, handler) {
        mediaSession._handlers[name] = handler
        _setActionHandler.apply(mediaSession, arguments)
      }
    }

    //=========================================================================
    // document.domain fix (Firefox)
    //=========================================================================

    if (isFirefox) {
      const domains = ['twitch.tv', 'crunchyroll.com']

      // Fix for setting document.domain in sandboxed iframe
      try {
        const { domain } = document
        if (domain &amp;&amp; domains.some(d =&gt; domain.includes(d))) {
          Object.defineProperty(document, 'domain', {
            value: domain,
            writable: true
          })
        }
      } catch (e) {}
    }

    //=========================================================================
    // Inline script embed prevention fix
    //=========================================================================

    const observeScripts = () =&gt; {
      const scriptSnippets = [
        { code: 'window.top !== window.self', replacement: 'false' },
        { code: 'self == top', replacement: 'true' },
        { code: 'top.location != window.location', replacement: 'false' }
      ]

      const getAddedScripts = mutationList =&gt;
        mutationList.reduce((scripts, mutation) =&gt; {
          if (mutation.type !== 'childList') return scripts
          const inlineScripts = Array.from(mutation.addedNodes).filter(
            node =&gt; node instanceof HTMLScriptElement &amp;&amp; node.textContent.length &gt; 0
          )
          return inlineScripts.length &gt; 0 ? [...scripts, ...inlineScripts] : scripts
        }, [])

      // Modifies inline scripts to allow embedding content in iframe
      const inlineScriptModifier = mutationsList =&gt; {
        const scripts = getAddedScripts(mutationsList)
        for (let script of scripts) {
          for (let snippet of scriptSnippets) {
            if (script.textContent.includes(snippet.code)) {
              script.textContent = script.textContent.split(snippet.code).join(snippet.replacement)
            }
          }
        }
      }

      const observer = new MutationObserver(inlineScriptModifier)
      observer.observe(document.documentElement, { childList: true, subtree: true })

      // Stop watching for changes after we finish loading
      window.addEventListener('load', () =&gt; observer.disconnect())
    }

    observeScripts()
  }());</script><g xmlns="http://www.w3.org/2000/svg" fill="#454045"><path d="m101.993 170.862c-17.459 0-31.663 14.204-31.663 31.663s14.204 31.663 31.663 31.663 31.663-14.204 31.663-31.663-14.204-31.663-31.663-31.663z" fill="#697ca6" data-original="#454045" class=""/><path d="m23.537 178.988c-12.978 0-23.537 10.558-23.537 23.536 0 12.979 10.559 23.537 23.537 23.537s23.537-10.559 23.537-23.537-10.558-23.536-23.537-23.536z" fill="#697ca6" data-original="#454045" class=""/><path d="m309.476 154.167c-26.665 0-48.358 21.693-48.358 48.358s21.693 48.358 48.358 48.358c26.664 0 48.357-21.693 48.357-48.358s-21.693-48.358-48.357-48.358z" fill="#697ca6" data-original="#454045" class=""/><ellipse cx="202.525" cy="202.525" rx="48.358" ry="48.358" transform="matrix(.973 -.23 .23 .973 -41.113 51.949)" fill="#697ca6" data-original="#454045" class=""/><path d="m309.476 261.117c-26.665 0-48.358 21.693-48.358 48.358s21.693 48.358 48.358 48.358c26.664 0 48.357-21.693 48.357-48.358 0-26.664-21.693-48.358-48.357-48.358z" fill="#697ca6" data-original="#454045" class=""/><path d="m410.007 170.862c-17.459 0-31.663 14.204-31.663 31.663s14.204 31.663 31.663 31.663 31.663-14.204 31.663-31.663-14.204-31.663-31.663-31.663z" fill="#697ca6" data-original="#454045" class=""/><path d="m488.463 226.062c12.979 0 23.537-10.559 23.537-23.537s-10.559-23.537-23.537-23.537-23.537 10.559-23.537 23.537 10.558 23.537 23.537 23.537z" fill="#697ca6" data-original="#454045" class=""/><ellipse cx="202.525" cy="309.475" rx="48.358" ry="48.358" transform="matrix(.707 -.707 .707 .707 -159.514 233.85)" fill="#697ca6" data-original="#454045" class=""/><path d="m101.993 277.813c-17.459 0-31.663 14.204-31.663 31.663s14.204 31.663 31.663 31.663 31.663-14.204 31.663-31.663-14.204-31.663-31.663-31.663z" fill="#697ca6" data-original="#454045" class=""/><path d="m23.537 285.938c-12.978 0-23.537 10.559-23.537 23.538 0 12.978 10.559 23.537 23.537 23.537s23.537-10.559 23.537-23.537c0-12.979-10.558-23.538-23.537-23.538z" fill="#697ca6" data-original="#454045" class=""/><path d="m410.007 277.813c-17.459 0-31.663 14.204-31.663 31.663s14.204 31.663 31.663 31.663 31.663-14.204 31.663-31.663-14.204-31.663-31.663-31.663z" fill="#697ca6" data-original="#454045" class=""/><path d="m488.463 285.938c-12.979 0-23.537 10.559-23.537 23.537s10.559 23.537 23.537 23.537 23.537-10.558 23.537-23.536c0-12.979-10.559-23.538-23.537-23.538z" fill="#697ca6" data-original="#454045" class=""/><path d="m309.476 133.656c17.459 0 31.662-14.204 31.662-31.663s-14.203-31.663-31.662-31.663-31.663 14.204-31.663 31.663 14.204 31.663 31.663 31.663z" fill="#697ca6" data-original="#454045" class=""/><circle cx="410.007" cy="101.993" r="31.663" fill="#697ca6" data-original="#454045" class=""/><path d="m101.993 378.344c-17.459 0-31.663 14.204-31.663 31.663s14.204 31.663 31.663 31.663 31.663-14.204 31.663-31.663-14.204-31.663-31.663-31.663z" fill="#697ca6" data-original="#454045" class=""/><path d="m410.007 378.344c-17.459 0-31.663 14.204-31.663 31.663s14.204 31.663 31.663 31.663 31.663-14.204 31.663-31.663-14.204-31.663-31.663-31.663z" fill="#697ca6" data-original="#454045" class=""/><path d="m101.993 70.331c-17.459 0-31.663 14.204-31.663 31.663s14.204 31.663 31.663 31.663 31.663-14.204 31.663-31.663-14.204-31.663-31.663-31.663z" fill="#697ca6" data-original="#454045" class=""/><circle cx="309.476" cy="23.537" r="23.537" fill="#697ca6" data-original="#454045" class=""/><path d="m309.476 378.344c-17.459 0-31.663 14.204-31.663 31.663s14.204 31.663 31.663 31.663 31.662-14.204 31.662-31.663-14.203-31.663-31.662-31.663z" fill="#697ca6" data-original="#454045" class=""/><circle cx="309.476" cy="488.463" r="23.537" fill="#697ca6" data-original="#454045" class=""/><path d="m202.524 133.656c17.459 0 31.663-14.204 31.663-31.663s-14.204-31.663-31.663-31.663-31.663 14.204-31.663 31.663 14.204 31.663 31.663 31.663z" fill="#697ca6" data-original="#454045" class=""/><path d="m202.524 47.074c12.979 0 23.537-10.559 23.537-23.537.001-12.978-10.558-23.537-23.537-23.537-12.978 0-23.537 10.559-23.537 23.537.001 12.978 10.559 23.537 23.537 23.537z" fill="#697ca6" data-original="#454045" class=""/><path d="m202.524 378.344c-17.459 0-31.663 14.204-31.663 31.663s14.204 31.663 31.663 31.663 31.663-14.204 31.663-31.663-14.204-31.663-31.663-31.663z" fill="#697ca6" data-original="#454045" class=""/><path d="m202.524 464.926c-12.978 0-23.537 10.559-23.537 23.537s10.559 23.537 23.537 23.537c12.979 0 23.537-10.559 23.537-23.537s-10.558-23.537-23.537-23.537z" fill="#697ca6" data-original="#454045" class=""/></g></g></svg>
