<svg fill="#5e81fe" id="Layer_1" enable-background="new 0 0 490 490" height="512" viewBox="0 0 490 490" width="512" xmlns="http://www.w3.org/2000/svg"><g><path d="m471.502 235h-149.536c35.457-22.669 59.012-62.385 59.012-107.5 0-70.304-57.196-127.5-127.5-127.5-.002 0-.091 0-.093 0-10.138.007-18.385 8.306-18.385 18.498v149.537c-22.669-35.457-62.385-59.012-107.5-59.012-70.304 0-127.5 57.196-127.5 127.5v.093c.007 10.137 8.306 18.384 18.498 18.384h149.537c-35.457 22.669-59.012 62.385-59.012 107.5 0 70.304 57.196 127.5 127.5 127.5h.093c10.137-.007 18.384-8.306 18.384-18.498v-149.536c22.669 35.457 62.385 59.012 107.5 59.012 70.304 0 127.5-57.196 127.5-127.5 0-.002 0-.091 0-.093-.007-10.138-8.306-18.385-18.498-18.385zm-216.502-214.989c58.579.814 105.978 48.72 105.978 107.489s-47.399 106.675-105.978 107.489zm-127.5 109.011c58.769 0 106.675 47.398 107.489 105.978h-214.978c.814-58.579 48.72-105.978 107.489-105.978zm107.5 340.967c-58.579-.814-105.978-48.72-105.978-107.489s47.399-106.675 105.978-107.489zm127.5-109.011c-43.405 0-80.879-25.858-97.837-62.978h85.903c5.523 0 10-4.477 10-10s-4.477-10-10-10h-92.737c-1.734-7.405-2.708-15.099-2.818-23h214.979c-.815 58.579-48.721 105.978-107.49 105.978z"/><path d="m382.917 298h4.477c5.523 0 10-4.477 10-10s-4.477-10-10-10h-4.477c-5.523 0-10 4.477-10 10s4.477 10 10 10z"/></g></svg>